# xmcd
#
# Track frame offsets: 
#        150
#        15224
#        31724
#        44924
#        62572
#        81223
#        96526
#        118059
#        133650
#        145874
#        168240
#        183674
#        196500
#        211346
#        231515
#        244125
#        255662
#        270217
#        288366
#        300737
#        314166
#        329130
#
# Disc length: 4552 seconds
#
# Revision: 2
# Processed by: cddbd v1.4PL0 Copyright (c) Steve Scherf et al.
# Submitted via: ExactAudioCopy v0.90b3
#
DISCID=4511c616
DTITLE=Rosanne Cash - Right Or Wrong and Seven Year Ache
DYEAR=2001
DGENRE=Country
TTITLE0=Right Or Wrong
TTITLE1=Take Me, Take Me
TTITLE2=Man Smart (Woman Smarter)
TTITLE3=This Has Happened Before
TTITLE4=Baby, Better Start Turnin' 'Em Down
TTITLE5=No Memories Hangin' "Round - Rosanne Cash and Bobby Bare
TTITLE6=Couldn't Do Nothin' Right
TTITLE7=Seeing's Believing
TTITLE8=Big River
TTITLE9=Anybody's Darlin' (Anything But Mine)
TTITLE10=Not A Second Time (Included on European album only)
TTITLE11=Rainin'
TTITLE12=Seven Year Ache
TTITLE13=Blue Moon With Heartache
TTITLE14=What Kinda Girl?
TTITLE15=You Don't Have Very Far To Go
TTITLE16=My Baby Thinks He's A Train
TTITLE17=Only Human
TTITLE18=Where Will The Words Come From?
TTITLE19=Hometown Blues
TTITLE20=I Can't Resist
TTITLE21=Ballad Of A Teenage Queen (Bonus Track) - Rosanne Cash with J
TTITLE21=ohnny Cash and The Everly Brothers
EXTD=2001 Raven Records\n\nRight Or Wrong Originally Released 1980\nSe
EXTD=ven Year Ache Originally Released 1981\nThis Compilation Released
EXTD=November 13, 2001\n\nAMG EXPERT REVIEW: (This compilation) The i
EXTD=ssue of Rosanne Cash's first two Columbia albums in a single pack
EXTD=age is not only a listening delight, it's more importantly a hist
EXTD=orical document. In the same way archivists go back to finds the 
EXTD=roots of certain evolutions in earlier strains of country music, 
EXTD=these two records will be marked undoubtedly as the turning point
EXTD=from the countrypolitan and outlaw sounds of the late '70s to th
EXTD=e fusion of country music with modern pop styles that could cross
EXTD=over and reach audiences on both sides of the country music divid
EXTD=e. It also marked the resurgence of the female singer/songwriter 
EXTD=that the music hadn't seen since the late '50s through the mid-'6
EXTD=0s. Right or Wrong is Cash's first collaboration with her husband
EXTD=and producer, Rodney Crowell. Formerly a member of Emmylou Harri
EXTD=s's Hot Band, he recruited Emmylou's crew for this project and pi
EXTD=cked Los Angeles as the site - Cash chose songs based on their mer
EXTD=it as songs rather than as country-potential country records. Con
EXTD=sequently, writers such as Keith Sykes, Karen Brookes, Gary P. Nu
EXTD=nn, and (at least on the British version) Lennon and McCartney go
EXTD=t shots at the mainstream country charts. In addition, Cash and C
EXTD=rowell both honed their songwriting skills specific to her voice 
EXTD=and delivery style, to the point where on Seven Year Ache they sc
EXTD=ored with three number one singles and a Top Ten album. Two of th
EXTD=ose singles, the title track and "Blue Moon With Heartache," were
EXTD=Cash compositions. The third single, Leroy Preston's "My Baby Th
EXTD=inks He's a Train," was covered by virtually every major female c
EXTD=ountry performer in its wake. Add covers of Tom Petty and Steve F
EXTD=orbert songs and the appearance of the queen herself, Emmylou Har
EXTD=ris, and you have a dynamite recording. These sides hold up well 
EXTD=over two decades later -- especially after what happened to count
EXTD=ry in the '90s (yeccccchhhhhh!!!!). The sound is pristine, the pa
EXTD=ckage has extensive liner notes, and there are bonus tracks to bo
EXTD=ot. Necessary. -- Thom Jurek\n
EXTT0=
EXTT1=
EXTT2=
EXTT3=
EXTT4=
EXTT5=
EXTT6=
EXTT7=
EXTT8=
EXTT9=
EXTT10=
EXTT11=
EXTT12=
EXTT13=
EXTT14=
EXTT15=
EXTT16=
EXTT17=
EXTT18=
EXTT19=
EXTT20=
EXTT21=
PLAYORDER=
